<?xml version="1.0" encoding="UTF-8"?>
<!DOCTYPE svg PUBLIC "-//W3C//DTD SVG 1.1//EN" "http://www.w3.org/Graphics/SVG/1.1/DTD/svg11.dtd">
<!-- Creator: CorelDRAW 2017 -->
<svg xmlns="http://www.w3.org/2000/svg" xml:space="preserve" width="88.1678mm" height="88.1625mm" version="1.1" style="shape-rendering:geometricPrecision; text-rendering:geometricPrecision; image-rendering:optimizeQuality; fill-rule:evenodd; clip-rule:evenodd"
viewBox="0 0 7835 7835"
 xmlns:xlink="http://www.w3.org/1999/xlink">
 <defs>
  <style type="text/css">
   <![CDATA[
    .fil0 {fill:#1EBEB6}
   ]]>
  </style>
 </defs>
 <g id="Layer_x0020_1">
  <metadata id="CorelCorpID_0Corel-Layer"/>
  <path class="fil0" d="M6291 3336c-28,0 -55,-5 -80,-16 -109,-44 -162,-168 -118,-277 151,-372 64,-799 -220,-1083 -291,-292 -743,-374 -1119,-204 -106,48 -234,1 -282,-106 -48,-107 -1,-233 106,-281 536,-242 1179,-125 1595,291 405,405 529,1013 313,1545 -32,80 -111,132 -197,132zm885 4099c-48,46 -96,91 -143,138 -203,203 -510,262 -787,262 -387,0 -797,-109 -1157,-245 -1062,-401 -2078,-1171 -2876,-1968 -798,-798 -1566,-1814 -1968,-2876 -198,-524 -443,-1484 17,-1945 47,-47 93,-95 139,-143 295,-310 651,-677 1115,-657 396,17 712,305 948,598 686,853 761,1303 18,2040l-81 80c-241,239 987,1505 1099,1617 320,320 693,675 1073,923 91,59 447,274 543,176l81 -82c737,-743 1188,-665 2039,19 293,236 582,552 598,948 19,469 -346,817 -659,1115zm267 -3631c-27,0 -55,-5 -80,-16 -108,-44 -161,-168 -117,-277 339,-835 145,-1792 -492,-2429 -653,-654 -1667,-838 -2509,-458 -107,48 -234,0 -282,-107 -48,-107 0,-234 106,-282 1002,-453 2208,-233 2986,544 758,758 989,1897 586,2890 -32,81 -111,133 -197,133zm-5961 -3378c-289,0 -587,332 -772,526 -49,51 -97,102 -146,152 -297,296 -43,1166 81,1493 379,1005 1116,1971 1871,2725 754,754 1720,1492 2725,1871 328,124 1196,378 1493,80 50,-49 100,-97 151,-145 201,-191 538,-494 526,-790 -10,-250 -259,-488 -439,-633 -653,-524 -899,-630 -1470,-52l-82 83c-305,308 -780,73 -1077,-121 -406,-264 -800,-637 -1142,-978 -361,-361 -1683,-1637 -1098,-2219l82 -82c576,-574 477,-816 -50,-1471 -146,-181 -383,-429 -650,-440z"/>
 </g>
</svg>
