<?xml version="1.0" encoding="UTF-8"?>
<!DOCTYPE svg PUBLIC "-//W3C//DTD SVG 1.1//EN" "http://www.w3.org/Graphics/SVG/1.1/DTD/svg11.dtd">
<!-- Creator: CorelDRAW 2017 -->
<svg xmlns="http://www.w3.org/2000/svg" xml:space="preserve" width="93.6999mm" height="67.1361mm" version="1.1" style="shape-rendering:geometricPrecision; text-rendering:geometricPrecision; image-rendering:optimizeQuality; fill-rule:evenodd; clip-rule:evenodd"
viewBox="0 0 8823 6322"
 xmlns:xlink="http://www.w3.org/1999/xlink">
 <defs>
  <style type="text/css">
   <![CDATA[
    .fil0 {fill:#1EBEB6}
   ]]>
  </style>
 </defs>
 <g id="Layer_x0020_1">
  <metadata id="CorelCorpID_0Corel-Layer"/>
  <path class="fil0" d="M8041 6322l-7260 0c-431,0 -782,-351 -782,-782l0 -4758c0,-431 351,-782 782,-782l7260 0c431,0 782,351 782,782l0 4758c0,431 -351,782 -782,782zm-7290 -5873l3387 2954c146,128 401,128 547,0l3387 -2954c-10,-1 -21,-1 -31,-1l-7260 0c-10,0 -20,0 -30,1zm4626 2944l-398 347c-156,137 -361,206 -568,206 -206,0 -412,-69 -568,-206l-397 -346 -1562 1466c-41,39 -96,61 -153,61 -62,0 -121,-25 -164,-71 -85,-90 -80,-232 10,-316l1530 -1435 -2660 -2321c0,1 0,3 0,4l0 4758c0,184 150,334 334,334l7260 0c184,0 335,-150 335,-334l0 -4758c0,-1 0,-2 0,-3l-2660 2320 1530 1435c90,84 94,226 10,316 -42,45 -101,71 -163,71 -57,0 -111,-22 -153,-61l-1561 -1467z"/>
 </g>
</svg>
