<?xml version="1.0" encoding="UTF-8"?>
<!DOCTYPE svg PUBLIC "-//W3C//DTD SVG 1.1//EN" "http://www.w3.org/Graphics/SVG/1.1/DTD/svg11.dtd">
<!-- Creator: CorelDRAW 2017 -->
<svg xmlns="http://www.w3.org/2000/svg" xml:space="preserve" width="84.6664mm" height="84.667mm" version="1.1" style="shape-rendering:geometricPrecision; text-rendering:geometricPrecision; image-rendering:optimizeQuality; fill-rule:evenodd; clip-rule:evenodd"
viewBox="0 0 796 796"
 xmlns:xlink="http://www.w3.org/1999/xlink">
 <defs>
  <style type="text/css">
   <![CDATA[
    .fil3 {fill:#115278}
    .fil2 {fill:#1EBEB6}
    .fil1 {fill:#1EBEB6;fill-rule:nonzero}
    .fil0 {fill:white;fill-rule:nonzero}
   ]]>
  </style>
 </defs>
 <g id="Layer_x0020_1">
  <metadata id="CorelCorpID_0Corel-Layer"/>
  <g id="_2402198606864">
   <g>
    <path class="fil0" d="M679 117c72,72 117,171 117,281 0,110 -45,209 -117,281 -72,72 -171,117 -281,117 -110,0 -209,-45 -281,-117 -72,-72 -117,-171 -117,-281 0,-110 45,-209 117,-281 72,-72 171,-117 281,-117 110,0 209,45 281,117z"/>
    <path class="fil1" d="M784 398c0,-107 -43,-203 -113,-273 -70,-70 -166,-113 -273,-113 -107,0 -203,43 -273,113 -70,70 -113,166 -113,273 0,107 43,203 113,273 70,70 166,113 273,113 107,0 203,-43 273,-113 70,-70 113,-166 113,-273zm-105 -281c72,72 117,171 117,281 0,110 -45,209 -117,281 -72,72 -171,117 -281,117 -110,0 -209,-45 -281,-117 -72,-72 -117,-171 -117,-281 0,-110 45,-209 117,-281 72,-72 171,-117 281,-117 110,0 209,45 281,117z"/>
   </g>
   <g>
    <g>
     <path class="fil2" d="M553 396c12,0 23,-8 25,-20l4 -32c2,-16 8,-38 11,-54 4,-17 6,-35 6,-53 0,-22 -18,-40 -40,-40 -7,0 -15,2 -21,6 -19,11 -42,11 -61,0 -6,-4 -13,-6 -21,-6 -22,0 -40,18 -40,40 0,18 2,36 6,53 4,16 9,37 11,54l4 32c1,12 13,20 25,20 11,0 22,-7 24,-19l10 -55c1,-5 7,-8 12,-8 5,0 10,3 12,8l10 56c2,11 13,19 24,19zm32 -159c0,17 -2,34 -5,50 -4,17 -9,38 -11,55l-4 32c-1,5 -6,8 -11,8 -4,0 -10,-3 -11,-7l-10 -56c-2,-12 -13,-19 -25,-19 -12,0 -23,8 -25,19l-10 55c-1,5 -6,8 -11,8 -5,0 -10,-3 -11,-8l-4 -32c-2,-17 -8,-38 -11,-55 -4,-16 -5,-33 -5,-50 0,-14 12,-26 26,-26 5,0 10,1 14,4 23,14 52,14 75,0 4,-2 9,-4 14,-4 14,0 26,12 26,26z"/>
    </g>
    <g>
     <path class="fil3" d="M507 598c4,0 7,-3 7,-7 0,-4 -3,-7 -7,-7l-303 0c-4,0 -7,3 -7,7 0,4 3,7 7,7l303 0z"/>
    </g>
    <g>
     <path class="fil3" d="M314 379c8,0 15,-7 15,-15l0 -34c0,-8 -7,-15 -15,-15l-34 0c-8,0 -15,7 -15,15l0 34c0,8 7,15 15,15l34 0zm2 -15l0 8c0,1 -1,2 -2,2 -1,0 -2,-1 -2,-2l0 -7 -32 0c-1,0 -2,-1 -2,-2l0 -34c0,-1 1,-2 2,-2l34 0c1,0 2,1 2,2l0 34z"/>
    </g>
    <g>
     <path class="fil3" d="M314 464c8,0 15,-7 15,-15l0 -34c0,-8 -7,-15 -15,-15l-34 0c-8,0 -15,7 -15,15l0 34c0,8 7,15 15,15l34 0zm2 -15l0 8c0,1 -1,2 -2,2 -1,0 -2,-1 -2,-2l0 -7 -32 0c-1,0 -2,-1 -2,-2l0 -34c0,-1 1,-2 2,-2l34 0c1,0 2,1 2,2l0 34z"/>
    </g>
    <g>
     <path class="fil3" d="M322 598c4,0 7,-3 7,-7l0 -84c0,-4 -3,-7 -7,-7l-50 0c-4,0 -7,3 -7,7l0 84c0,4 3,7 7,7l50 0zm-44 -15l0 -67c0,-1 1,-2 2,-2l34 0c1,0 2,1 2,2l0 67c0,1 -1,2 -2,2l-34 0c-1,0 -2,-1 -2,-2z"/>
    </g>
    <g>
     <path class="fil3" d="M448 514c18,0 32,-14 32,-32 0,-18 -14,-32 -32,-32 -18,0 -32,14 -32,32 0,18 14,32 32,32zm0 -50c10,0 18,8 18,18 0,10 -8,18 -18,18 -10,0 -18,-8 -18,-18 0,-10 8,-18 18,-18z"/>
    </g>
    <g>
     <path class="fil3" d="M448 598c4,0 7,-3 7,-7l0 -84c0,-4 -3,-7 -7,-7 -4,0 -7,3 -7,7l0 84c0,4 3,7 7,7z"/>
    </g>
    <g>
     <path class="fil3" d="M297 245c4,0 7,-3 7,-7l0 -34c0,-4 -3,-7 -7,-7 -4,0 -7,3 -7,7l0 34c0,4 3,7 7,7z"/>
    </g>
    <g>
     <path class="fil3" d="M389 598c4,0 7,-3 7,-7l0 -235c0,-4 -3,-7 -7,-7 -4,0 -7,3 -7,7l0 227c0,1 -1,2 -2,2l-168 0c-1,0 -2,-1 -2,-2l0 -294c0,-5 4,-10 10,-10l151 0c4,0 7,-3 7,-7 0,-4 -3,-7 -7,-7l-151 0c-13,0 -24,11 -24,24l0 303c0,4 3,7 7,7l185 0z"/>
    </g>
    <g>
     <path class="fil3" d="M356 279c4,0 7,-3 7,-7l0 -17c0,-13 -11,-24 -24,-24l-84 0c-13,0 -24,11 -24,24l0 17c0,4 3,7 7,7 4,0 7,-3 7,-7l0 -17c0,-5 4,-10 10,-10l84 0c5,0 10,4 10,10l0 17c0,4 3,7 7,7z"/>
    </g>
   </g>
  </g>
 </g>
</svg>
