<?xml version="1.0" encoding="UTF-8"?>
<!DOCTYPE svg PUBLIC "-//W3C//DTD SVG 1.1//EN" "http://www.w3.org/Graphics/SVG/1.1/DTD/svg11.dtd">
<!-- Creator: CorelDRAW 2017 -->
<svg xmlns="http://www.w3.org/2000/svg" xml:space="preserve" width="84.6664mm" height="84.667mm" version="1.1" style="shape-rendering:geometricPrecision; text-rendering:geometricPrecision; image-rendering:optimizeQuality; fill-rule:evenodd; clip-rule:evenodd"
viewBox="0 0 1020 1020"
 xmlns:xlink="http://www.w3.org/1999/xlink">
 <defs>
  <style type="text/css">
   <![CDATA[
    .fil2 {fill:#115278}
    .fil3 {fill:#1EBEB6}
    .fil1 {fill:#1EBEB6;fill-rule:nonzero}
    .fil0 {fill:white;fill-rule:nonzero}
   ]]>
  </style>
 </defs>
 <g id="Layer_x0020_1">
  <metadata id="CorelCorpID_0Corel-Layer"/>
  <g id="_2402091058128">
   <g>
    <path class="fil0" d="M871 149c92,92 149,220 149,361 0,141 -57,268 -149,361 -92,92 -220,149 -361,149 -141,0 -268,-57 -361,-149 -92,-92 -149,-220 -149,-361 0,-141 57,-268 149,-361 92,-92 220,-149 361,-149 141,0 268,57 361,149z"/>
    <path class="fil1" d="M1005 510c0,-137 -55,-260 -145,-350 -90,-90 -213,-145 -350,-145 -137,0 -260,55 -350,145 -90,90 -145,213 -145,350 0,137 55,260 145,350 90,90 213,145 350,145 137,0 260,-55 350,-145 90,-90 145,-213 145,-350zm-134 -361c92,92 149,220 149,361 0,141 -57,268 -149,361 -92,92 -220,149 -361,149 -141,0 -268,-57 -361,-149 -92,-92 -149,-220 -149,-361 0,-141 57,-268 149,-361 92,-92 220,-149 361,-149 141,0 268,57 361,149z"/>
   </g>
   <g>
    <g>
     <g>
      <g>
       <path class="fil2" d="M738 253l-320 0c-23,0 -42,19 -42,42l0 17 -26 0c-23,0 -42,19 -42,42l0 17 -26 0c-23,0 -42,19 -42,42l0 228c0,23 19,42 42,42l43 0 0 76c0,7 8,10 13,6l99 -82 166 0c23,0 42,-19 42,-42l0 -17 26 0c23,0 42,-19 42,-42l0 -17 26 0c23,0 42,-19 42,-42l0 -228c0,-23 -19,-42 -42,-42zm-109 388c0,14 -12,26 -26,26l-169 0c-2,0 -4,1 -5,2l-88 74 0 -67c0,-4 -4,-8 -8,-8l-51 0c-14,0 -26,-12 -26,-26l0 -228c0,-14 12,-26 26,-26l320 0c14,0 26,12 26,26l0 228zm135 -118c0,14 -12,26 -26,26l-26 0 0 -131c0,-4 -4,-8 -8,-8 -4,0 -8,4 -8,8l0 164c0,14 -12,26 -26,26l-26 0 0 -195c0,-23 -19,-42 -42,-42l-279 0 0 -17c0,-14 12,-26 26,-26l320 0c14,0 26,12 26,26l0 26c0,4 4,8 8,8 4,0 8,-4 8,-8l0 -26c0,-23 -19,-42 -42,-42l-279 0 0 -17c0,-14 12,-26 26,-26l320 0c14,0 26,12 26,26l0 228z"/>
      </g>
     </g>
     <g>
      <g>
       <path class="fil3" d="M409 447l-67 0c-4,0 -8,4 -8,8 0,4 4,8 8,8l67 0c4,0 8,-4 8,-8 0,-4 -3,-8 -8,-8z"/>
      </g>
     </g>
     <g>
      <g>
       <path class="fil3" d="M493 447l-51 0c-4,0 -8,4 -8,8 0,4 4,8 8,8l51 0c4,0 8,-4 8,-8 0,-4 -4,-8 -8,-8z"/>
      </g>
     </g>
     <g>
      <g>
       <path class="fil3" d="M451 515l-110 0c-4,0 -8,4 -8,8 0,4 4,8 8,8l110 0c4,0 8,-4 8,-8 0,-4 -4,-8 -8,-8z"/>
      </g>
     </g>
     <g>
      <g>
       <path class="fil3" d="M586 515l-93 0c-4,0 -8,4 -8,8 0,4 4,8 8,8l93 0c4,0 8,-4 8,-8 0,-4 -4,-8 -8,-8z"/>
      </g>
     </g>
     <g>
      <g>
       <path class="fil3" d="M409 557l-67 0c-4,0 -8,4 -8,8 0,4 4,8 8,8l67 0c4,0 8,-4 8,-8 0,-4 -3,-8 -8,-8z"/>
      </g>
     </g>
     <g>
      <g>
       <path class="fil3" d="M586 557l-143 0c-4,0 -8,4 -8,8 0,4 4,8 8,8l143 0c4,0 8,-4 8,-8 0,-4 -4,-8 -8,-8z"/>
      </g>
     </g>
     <g>
      <g>
       <path class="fil3" d="M493 599l-152 0c-4,0 -8,4 -8,8 0,4 4,8 8,8l152 0c4,0 8,-4 8,-8 0,-4 -4,-8 -8,-8z"/>
      </g>
     </g>
    </g>
   </g>
  </g>
 </g>
</svg>
