<?xml version="1.0" encoding="UTF-8"?>
<!DOCTYPE svg PUBLIC "-//W3C//DTD SVG 1.1//EN" "http://www.w3.org/Graphics/SVG/1.1/DTD/svg11.dtd">
<!-- Creator: CorelDRAW 2017 -->
<svg xmlns="http://www.w3.org/2000/svg" xml:space="preserve" width="84.6664mm" height="84.667mm" version="1.1" style="shape-rendering:geometricPrecision; text-rendering:geometricPrecision; image-rendering:optimizeQuality; fill-rule:evenodd; clip-rule:evenodd"
viewBox="0 0 646 646"
 xmlns:xlink="http://www.w3.org/1999/xlink">
 <defs>
  <style type="text/css">
   <![CDATA[
    .fil2 {fill:#115278}
    .fil3 {fill:#1EBEB6}
    .fil1 {fill:#1EBEB6;fill-rule:nonzero}
    .fil0 {fill:white;fill-rule:nonzero}
   ]]>
  </style>
 </defs>
 <g id="Layer_x0020_1">
  <metadata id="CorelCorpID_0Corel-Layer"/>
  <g id="_2402200358272">
   <g>
    <path class="fil0" d="M552 95c58,58 95,139 95,229 0,89 -36,170 -95,229 -58,58 -139,95 -229,95 -89,0 -170,-36 -229,-95 -58,-58 -95,-139 -95,-229 0,-89 36,-170 95,-229 58,-58 139,-95 229,-95 89,0 170,36 229,95z"/>
    <path class="fil1" d="M637 323c0,-87 -35,-165 -92,-222 -57,-57 -135,-92 -222,-92 -87,0 -165,35 -222,92 -57,57 -92,135 -92,222 0,87 35,165 92,222 57,57 135,92 222,92 87,0 165,-35 222,-92 57,-57 92,-135 92,-222zm-85 -229c58,58 95,139 95,229 0,89 -36,170 -95,229 -58,58 -139,95 -229,95 -89,0 -170,-36 -229,-95 -58,-58 -95,-139 -95,-229 0,-89 36,-170 95,-229 58,-58 139,-95 229,-95 89,0 170,36 229,95z"/>
   </g>
   <g>
    <g>
     <path class="fil2" d="M229 437l188 0c3,0 6,-2 6,-6 0,-3 -2,-6 -6,-6l-188 0c-3,0 -6,2 -6,6 0,3 2,6 6,6z"/>
    </g>
    <g>
     <path class="fil3" d="M400 394c-6,0 -11,-5 -11,-11 0,-3 -2,-6 -6,-6 -3,0 -6,2 -6,6 0,12 10,22 22,22 12,0 22,-10 22,-22l0 -30c0,-12 -10,-22 -22,-22 -12,0 -22,10 -22,22 0,12 10,22 22,22 3,0 7,-1 10,-2 0,0 1,0 1,0 0,0 0,0 0,1l0 10c0,6 -5,11 -11,11zm0 -30c-6,0 -11,-5 -11,-11 0,-6 5,-11 11,-11 6,0 11,5 11,11 0,6 -5,11 -11,11z"/>
    </g>
    <g>
     <path class="fil3" d="M366 352c0,-12 -10,-22 -22,-22 -12,0 -22,10 -22,22 0,12 10,22 22,22 12,0 22,-10 22,-22zm-33 0c0,-6 5,-11 11,-11 6,0 11,5 11,11 0,6 -5,11 -11,11 -6,0 -11,-5 -11,-11z"/>
    </g>
    <g>
     <path class="fil3" d="M292 297c-3,0 -6,2 -6,6l0 51c0,11 9,20 20,20 3,0 6,-2 6,-6 0,-3 -2,-6 -6,-6 -5,0 -9,-4 -9,-9l0 -51c0,-3 -2,-6 -6,-6z"/>
    </g>
    <g>
     <path class="fil3" d="M273 319c0,-12 -10,-22 -22,-22l-21 0c-3,0 -6,2 -6,6l0 66c0,3 2,6 6,6l21 0c12,0 22,-10 22,-22 0,-6 -2,-12 -7,-16 0,0 0,0 0,-1 0,0 0,0 0,-1 4,-4 7,-10 7,-16zm-11 33c0,6 -5,11 -11,11l-15 0c0,0 -1,0 -1,-1l0 -20c0,0 0,-1 1,-1l15 0c6,0 11,5 11,11zm-27 -23l0 -20c0,0 0,-1 1,-1l15 0c6,0 11,5 11,11 0,6 -5,11 -11,11l-15 0c0,0 -1,0 -1,-1z"/>
    </g>
    <g>
     <path class="fil2" d="M466 174l-285 0c-11,0 -19,9 -19,19l0 259c0,11 9,19 19,19l120 0c3,0 6,-2 6,-6 0,-3 -2,-6 -6,-6l-120 0c-5,0 -8,-4 -8,-8l0 -206c0,0 0,-1 1,-1l300 0c0,0 1,0 1,1l0 206c0,5 -4,8 -8,8l-112 0c-3,0 -6,2 -6,6 0,3 2,6 6,6l112 0c11,0 19,-9 19,-19l0 -259c0,-11 -9,-19 -19,-19zm-293 60l0 -41c0,-5 4,-8 8,-8l285 0c5,0 8,4 8,8l0 41c0,0 0,1 -1,1l-300 0c0,0 -1,0 -1,-1z"/>
    </g>
    <g>
     <path class="fil2" d="M328 461c-1,0 -3,1 -4,2 -1,1 -2,2 -2,4 0,1 1,3 2,4 1,1 2,2 4,2 1,0 3,-1 4,-2 1,-1 2,-2 2,-4 0,-1 -1,-3 -2,-4 -1,-1 -2,-2 -4,-2z"/>
    </g>
    <g>
     <path class="fil2" d="M443 204l-123 0c-3,0 -6,2 -6,6 0,3 2,6 6,6l123 0c3,0 6,-2 6,-6 0,-3 -2,-6 -6,-6z"/>
    </g>
    <g>
     <path class="fil2" d="M266 204l0 0c-3,0 -6,2 -6,6 0,3 2,6 6,6l0 0c3,0 6,-2 6,-6 0,-3 -2,-6 -6,-6z"/>
    </g>
    <g>
     <path class="fil2" d="M235 204l0 0c-3,0 -6,2 -6,6 0,3 2,6 6,6l0 0c3,0 6,-2 6,-6 0,-3 -2,-6 -6,-6z"/>
    </g>
    <g>
     <path class="fil2" d="M203 204l0 0c-3,0 -6,2 -6,6 0,3 2,6 6,6l0 0c3,0 6,-2 6,-6 0,-3 -2,-6 -6,-6z"/>
    </g>
   </g>
  </g>
 </g>
</svg>
