<?xml version="1.0" encoding="UTF-8"?>
<!DOCTYPE svg PUBLIC "-//W3C//DTD SVG 1.1//EN" "http://www.w3.org/Graphics/SVG/1.1/DTD/svg11.dtd">
<!-- Creator: CorelDRAW 2017 -->
<svg xmlns="http://www.w3.org/2000/svg" xml:space="preserve" width="84.6664mm" height="84.667mm" version="1.1" style="shape-rendering:geometricPrecision; text-rendering:geometricPrecision; image-rendering:optimizeQuality; fill-rule:evenodd; clip-rule:evenodd"
viewBox="0 0 1440 1440"
 xmlns:xlink="http://www.w3.org/1999/xlink">
 <defs>
  <style type="text/css">
   <![CDATA[
    .fil2 {fill:#115278}
    .fil3 {fill:#1EBEB6}
    .fil1 {fill:#1EBEB6;fill-rule:nonzero}
    .fil0 {fill:white;fill-rule:nonzero}
   ]]>
  </style>
 </defs>
 <g id="Layer_x0020_1">
  <metadata id="CorelCorpID_0Corel-Layer"/>
  <g id="_2402082604192">
   <g>
    <path class="fil0" d="M1229 211c130,130 211,310 211,509 0,199 -81,379 -211,509 -130,130 -310,211 -509,211 -199,0 -379,-81 -509,-211 -130,-130 -211,-310 -211,-509 0,-199 81,-379 211,-509 130,-130 310,-211 509,-211 199,0 379,81 509,211z"/>
    <path class="fil1" d="M1418 720c0,-193 -78,-368 -205,-494 -126,-126 -301,-205 -494,-205 -193,0 -368,78 -494,205 -126,126 -205,301 -205,494 0,193 78,368 205,494 126,126 301,205 494,205 193,0 368,-78 494,-205 126,-126 205,-301 205,-494zm-190 -509c130,130 211,310 211,509 0,199 -81,379 -211,509 -130,130 -310,211 -509,211 -199,0 -379,-81 -509,-211 -130,-130 -211,-310 -211,-509 0,-199 81,-379 211,-509 130,-130 310,-211 509,-211 199,0 379,81 509,211z"/>
   </g>
   <g>
    <path class="fil2" d="M720 423c-9,0 -16,-7 -16,-16l0 -33c0,-9 7,-16 16,-16 9,0 16,7 16,16l0 33c0,9 -7,16 -16,16z"/>
    <path class="fil2" d="M720 1082c-9,0 -16,-7 -16,-16l0 -33c0,-9 7,-16 16,-16 9,0 16,7 16,16l0 33c0,9 -7,16 -16,16z"/>
    <path class="fil2" d="M1066 736l-33 0c-9,0 -16,-7 -16,-16 0,-9 7,-16 16,-16l33 0c9,0 16,7 16,16 0,9 -7,16 -16,16z"/>
    <path class="fil2" d="M407 736l-33 0c-9,0 -16,-7 -16,-16 0,-9 7,-16 16,-16l33 0c9,0 16,7 16,16 0,9 -7,16 -16,16z"/>
    <path class="fil2" d="M964 981c-4,0 -9,-2 -12,-5l-23 -23c-6,-7 -5,-17 2,-23 6,-5 15,-5 21,0l23 23c6,6 7,17 0,23 0,0 0,0 0,0 -3,3 -7,5 -12,5z"/>
    <path class="fil2" d="M499 515c-4,0 -8,-2 -12,-5l-23 -23c-6,-6 -6,-17 0,-23 6,-6 17,-6 23,0l23 23c6,6 6,17 0,23 -3,3 -7,5 -12,5z"/>
    <path class="fil2" d="M941 515c-4,0 -9,-2 -12,-5 -6,-6 -6,-17 0,-23l23 -23c6,-6 17,-6 23,0 6,6 6,17 0,23l-23 23c-3,3 -7,5 -12,5z"/>
    <path class="fil2" d="M475 981c-4,0 -9,-2 -12,-5 -6,-6 -6,-17 0,-23 0,0 0,0 0,0l23 -23c7,-6 17,-5 23,2 5,6 5,15 0,21l-23 23c-3,3 -7,5 -12,5z"/>
    <path class="fil3" d="M649 807c-4,0 -8,-2 -11,-5 -6,-6 -6,-17 0,-23l66 -66 0 -207c0,-9 7,-16 16,-16 9,0 16,7 16,16l0 214c0,4 -2,9 -5,12l-71 71c-3,3 -7,5 -12,5z"/>
   </g>
  </g>
 </g>
</svg>
