<?xml version="1.0" encoding="UTF-8"?>
<!DOCTYPE svg PUBLIC "-//W3C//DTD SVG 1.1//EN" "http://www.w3.org/Graphics/SVG/1.1/DTD/svg11.dtd">
<!-- Creator: CorelDRAW 2017 -->
<svg xmlns="http://www.w3.org/2000/svg" xml:space="preserve" width="84.6628mm" height="84.6667mm" version="1.1" style="shape-rendering:geometricPrecision; text-rendering:geometricPrecision; image-rendering:optimizeQuality; fill-rule:evenodd; clip-rule:evenodd"
viewBox="0 0 1291 1291"
 xmlns:xlink="http://www.w3.org/1999/xlink">
 <defs>
  <style type="text/css">
   <![CDATA[
    .fil1 {fill:#686868}
    .fil0 {fill:#686868;fill-rule:nonzero}
   ]]>
  </style>
 </defs>
 <g id="Layer_x0020_1">
  <metadata id="CorelCorpID_0Corel-Layer"/>
  <g id="_2402044763408">
   <path class="fil0" d="M646 44c-165,0 -316,68 -425,177 -109,109 -177,259 -177,425 0,165 68,316 177,425 109,109 259,177 425,177 165,0 316,-68 425,-177 109,-109 177,-259 177,-425 0,-165 -68,-316 -177,-425 -109,-109 -259,-177 -425,-177zm-456 145c117,-117 278,-190 456,-190 178,0 339,73 456,190 117,117 190,279 190,456 0,178 -73,339 -190,456 -117,117 -279,190 -456,190 -178,0 -339,-73 -456,-190 -117,-117 -190,-279 -190,-456 0,-178 73,-339 190,-456z"/>
   <path class="fil1" d="M646 298c-95,0 -106,0 -143,2 -37,2 -62,8 -84,16 -23,9 -42,21 -62,40 -19,19 -31,39 -40,62 -9,22 -14,47 -16,84 -2,37 -2,49 -2,143 0,95 0,106 2,143 2,37 8,62 16,85 9,23 21,42 40,62 19,19 39,31 62,40 22,9 47,14 84,16 37,2 49,2 143,2 95,0 106,0 143,-2 37,-2 62,-8 85,-16 23,-9 42,-21 62,-40 19,-19 31,-39 40,-62 9,-22 14,-47 16,-85 2,-37 2,-49 2,-143 0,-95 0,-106 -2,-143 -2,-37 -8,-62 -16,-84 -9,-23 -21,-42 -40,-62 -19,-19 -39,-31 -62,-40 -22,-9 -47,-14 -85,-16 -37,-2 -49,-2 -143,-2l0 0zm0 63c93,0 104,0 141,2 34,2 52,7 65,12 16,6 28,14 40,26 12,12 20,24 26,40 5,12 10,31 12,65 2,37 2,48 2,141 0,93 0,104 -2,141 -2,34 -7,52 -12,65 -6,16 -14,28 -26,40 -12,12 -24,20 -40,26 -12,5 -31,10 -65,12 -37,2 -48,2 -141,2 -93,0 -104,0 -141,-2 -34,-2 -52,-7 -65,-12 -16,-6 -28,-14 -40,-26 -12,-12 -20,-24 -26,-40 -5,-12 -10,-31 -12,-65 -2,-37 -2,-48 -2,-141 0,-93 0,-104 2,-141 2,-34 7,-52 12,-65 6,-16 14,-28 26,-40 12,-12 24,-20 40,-26 12,-5 31,-10 65,-12 37,-2 48,-2 141,-2zm0 401c-64,0 -116,-52 -116,-116 0,-64 52,-116 116,-116 64,0 116,52 116,116 0,64 -52,116 -116,116zm0 -295c-99,0 -179,80 -179,179 0,99 80,179 179,179 99,0 179,-80 179,-179 0,-99 -80,-179 -179,-179zm228 -7c0,23 -19,42 -42,42 -23,0 -42,-19 -42,-42 0,-23 19,-42 42,-42 23,0 42,19 42,42z"/>
  </g>
 </g>
</svg>
