<?xml version="1.0" encoding="UTF-8"?>
<!DOCTYPE svg PUBLIC "-//W3C//DTD SVG 1.1//EN" "http://www.w3.org/Graphics/SVG/1.1/DTD/svg11.dtd">
<!-- Creator: CorelDRAW 2017 -->
<svg xmlns="http://www.w3.org/2000/svg" xml:space="preserve" width="84.6628mm" height="84.6667mm" version="1.1" style="shape-rendering:geometricPrecision; text-rendering:geometricPrecision; image-rendering:optimizeQuality; fill-rule:evenodd; clip-rule:evenodd"
viewBox="0 0 896 896"
 xmlns:xlink="http://www.w3.org/1999/xlink">
 <defs>
  <style type="text/css">
   <![CDATA[
    .fil0 {fill:#686868;fill-rule:nonzero}
   ]]>
  </style>
 </defs>
 <g id="Layer_x0020_1">
  <metadata id="CorelCorpID_0Corel-Layer"/>
  <g id="_2402044767984">
   <path class="fil0" d="M448 0c123,0 235,50 316,132 81,81 132,193 132,316 0,123 -50,235 -132,316 -81,81 -193,132 -316,132 -123,0 -235,-50 -316,-132 -81,-81 -132,-193 -132,-316 0,-123 50,-235 132,-316 81,-81 193,-132 316,-132zm295 153c-76,-76 -180,-123 -295,-123 -115,0 -219,47 -295,123 -76,76 -123,180 -123,295 0,115 47,219 123,295 76,76 180,123 295,123 115,0 219,-47 295,-123 76,-76 123,-180 123,-295 0,-115 -47,-219 -123,-295z"/>
   <path class="fil0" d="M353 226l11 42c1,5 2,9 3,12 1,3 1,6 2,9 0,3 1,6 1,9 0,3 1,7 2,13l1 0c0,-8 1,-15 2,-21 1,-7 2,-13 4,-19l12 -44 32 0 -35 120 0 74 -34 0 0 -73 -35 -122 35 0zm136 170c0,8 -3,15 -10,19 -7,5 -16,7 -28,7 -12,0 -21,-2 -28,-7 -7,-5 -10,-11 -10,-19l0 -108c0,-8 3,-15 10,-19 7,-5 16,-7 28,-7 12,0 21,2 28,7 7,5 10,11 10,19l0 108zm-31 -107l0 0c0,-4 -1,-6 -2,-7 -1,-1 -3,-1 -5,-1 -2,0 -4,0 -5,1 -1,1 -2,3 -2,7l0 106c0,4 1,6 2,7 1,1 3,1 5,1 2,0 4,0 5,-1 1,-1 2,-3 2,-7l0 -106zm120 131l-31 0 0 -9 -1 0c-2,4 -5,6 -9,8 -4,2 -8,3 -12,3 -6,0 -11,-1 -14,-2 -3,-2 -5,-4 -7,-6 -1,-3 -2,-6 -2,-9 0,-4 0,-7 0,-12l0 -128 31 0 0 126c0,2 0,4 1,6 1,2 3,3 6,3 4,0 6,-1 7,-3 1,-2 1,-4 1,-6l0 -126 31 0 0 156zm-201 55l0 25 -29 0 0 167 -34 0 0 -167 -30 0 0 -25 93 0zm57 192l-31 0 0 -9 -1 0c-2,4 -5,6 -9,8 -4,2 -8,3 -12,3 -6,0 -11,-1 -14,-2 -3,-2 -6,-4 -7,-6 -1,-3 -2,-6 -2,-9 0,-3 0,-7 0,-11l0 -127 31 0 0 125c0,2 0,4 1,6 1,2 3,3 6,3 4,0 6,-1 7,-3 1,-2 1,-4 1,-6l0 -125 31 0 0 155zm13 -192l31 0 0 48 1 0c2,-3 5,-6 9,-8 4,-2 8,-3 13,-3 6,0 11,1 16,4 5,3 7,7 7,14l0 122c0,6 -2,11 -7,14 -5,3 -10,4 -16,4 -5,0 -9,-1 -13,-3 -4,-2 -7,-5 -9,-8l-1 0 0 9 -31 0 0 -192zm46 68l0 0c0,-4 -1,-7 -2,-8 -2,-1 -3,-2 -5,-2 -2,0 -4,1 -5,2 -1,1 -2,4 -2,8l0 95c0,4 1,7 2,8 2,1 3,2 5,2 2,0 4,-1 5,-2 1,-1 2,-4 2,-8l0 -95zm120 64l0 37c0,8 -3,14 -10,19 -7,5 -16,7 -28,7 -12,0 -21,-2 -28,-7 -7,-5 -10,-11 -10,-19l0 -107c0,-8 3,-14 10,-19 7,-5 16,-7 28,-7 12,0 21,2 28,7 7,5 10,11 10,19l0 57 -46 0 0 49c0,4 1,6 2,7 1,1 3,1 5,1 2,0 4,0 5,-1 1,-1 2,-3 2,-7l0 -36 31 0zm-31 -69l0 0c0,-4 -1,-6 -2,-6 -1,-1 -3,-1 -5,-1 -2,0 -4,0 -5,1 -1,1 -2,3 -2,6l0 38 15 0 0 -38z"/>
  </g>
 </g>
</svg>
