<?xml version="1.0" encoding="UTF-8"?>
<!DOCTYPE svg PUBLIC "-//W3C//DTD SVG 1.1//EN" "http://www.w3.org/Graphics/SVG/1.1/DTD/svg11.dtd">
<!-- Creator: CorelDRAW 2017 -->
<svg xmlns="http://www.w3.org/2000/svg" xml:space="preserve" width="84.6648mm" height="84.6667mm" version="1.1" style="shape-rendering:geometricPrecision; text-rendering:geometricPrecision; image-rendering:optimizeQuality; fill-rule:evenodd; clip-rule:evenodd"
viewBox="0 0 556 556"
 xmlns:xlink="http://www.w3.org/1999/xlink">
 <defs>
  <style type="text/css">
   <![CDATA[
    .fil0 {fill:#686868;fill-rule:nonzero}
   ]]>
  </style>
 </defs>
 <g id="Layer_x0020_1">
  <metadata id="CorelCorpID_0Corel-Layer"/>
  <g id="_2402082585936">
   <path class="fil0" d="M278 0c76,0 146,31 196,82 50,50 82,120 82,196 0,76 -31,146 -82,196 -50,50 -120,82 -196,82 -76,0 -146,-31 -196,-82 -50,-50 -82,-120 -82,-196 0,-76 31,-146 82,-196 50,-50 120,-82 196,-82zm183 95c-47,-47 -112,-76 -183,-76 -71,0 -136,29 -183,76 -47,47 -76,112 -76,183 0,71 29,136 76,183 47,47 112,76 183,76 71,0 136,-29 183,-76 47,-47 76,-112 76,-183 0,-71 -29,-136 -76,-183z"/>
   <path class="fil0" d="M343 229l-44 0 0 -29c0,-11 7,-13 12,-13 5,0 31,0 31,0l0 -48 -43 0c-47,0 -58,35 -58,58l0 32 -27 0 0 49 27 0c0,63 0,139 0,139l58 0c0,0 0,-77 0,-139l39 0 5 -49z"/>
  </g>
 </g>
</svg>
