<?xml version="1.0" encoding="UTF-8"?>
<!DOCTYPE svg PUBLIC "-//W3C//DTD SVG 1.1//EN" "http://www.w3.org/Graphics/SVG/1.1/DTD/svg11.dtd">
<!-- Creator: CorelDRAW 2017 -->
<svg xmlns="http://www.w3.org/2000/svg" xml:space="preserve" width="84.6647mm" height="84.6667mm" version="1.1" style="shape-rendering:geometricPrecision; text-rendering:geometricPrecision; image-rendering:optimizeQuality; fill-rule:evenodd; clip-rule:evenodd"
viewBox="0 0 686 686"
 xmlns:xlink="http://www.w3.org/1999/xlink">
 <defs>
  <style type="text/css">
   <![CDATA[
    .fil1 {fill:#686868}
    .fil0 {fill:#686868;fill-rule:nonzero;fill-opacity:0.901961}
   ]]>
  </style>
 </defs>
 <g id="Layer_x0020_1">
  <metadata id="CorelCorpID_0Corel-Layer"/>
  <g id="_2402044738800">
   <path class="fil0" d="M343 23c-88,0 -168,36 -226,94 -58,58 -94,138 -94,226 0,88 36,168 94,226 58,58 138,94 225,94 88,0 168,-36 226,-94 58,-58 94,-138 94,-225 0,-88 -36,-168 -94,-226 -58,-58 -138,-94 -226,-94zm0 -23c94,0 180,39 242,101 62,62 101,148 101,242 0,94 -39,180 -101,242 -62,62 -148,101 -242,101 -94,0 -180,-39 -242,-101 -62,-62 -101,-148 -101,-242 0,-94 39,-180 101,-242 62,-62 148,-101 242,-101z"/>
   <path class="fil1" d="M142 405c19,14 43,29 77,26 32,-2 53,-17 71,-33 -12,1 -24,-3 -28,-12 -5,-11 7,-19 14,-23 -25,1 -39,-10 -48,-25 5,-7 15,-11 26,-12 -22,-6 -41,-16 -44,-41 7,-1 15,-2 22,-3 -16,-11 -32,-23 -32,-50 36,14 74,29 106,47 11,6 19,15 28,23 7,-20 15,-38 25,-55 10,-17 21,-33 38,-43 -1,4 -2,6 -4,9 8,-5 17,-11 30,-13 -1,7 -7,9 -11,12 5,-2 9,-4 15,-5 4,-1 14,-3 15,2 1,5 -10,9 -14,11 -7,2 -12,4 -19,5 50,5 75,35 86,79 13,4 35,4 47,-1 -6,15 -23,20 -43,22 11,5 29,7 44,5 0,1 -1,2 -2,3 -10,9 -25,16 -45,14 -20,72 -75,115 -153,129 -21,4 -44,5 -65,3 -62,-6 -104,-38 -135,-77z"/>
  </g>
 </g>
</svg>
